<svg width="1279" height="804" viewBox="0 0 1279 804" fill="none" xmlns="http://www.w3.org/2000/svg">
<path d="M1278 721.358V386.858C1059.94 427.194 790.686 411.814 756 300.858C721.314 189.901 720.071 132.939 632.5 108.358C544.929 83.7759 459.562 221.511 367 194.358C274.438 167.204 290.428 59.977 249.5 24.3576C208.572 -11.2617 132.178 -7.45573 0 44.8576V721.358H1278Z" fill="#FFF9E3" stroke="#FFF9E3"/>
<path d="M1278 803V468.5C1059.94 508.836 790.686 493.457 756 382.5C721.314 271.543 720.071 214.582 632.5 190C544.929 165.418 459.562 303.154 367 276C274.438 248.846 290.428 141.619 249.5 106C208.572 70.3807 132.178 74.1866 0 126.5V803H1278Z" fill="#E0C792" stroke="#E0C792"/>
</svg>
