<svg width="89" height="97" viewBox="0 0 89 97" fill="none" xmlns="http://www.w3.org/2000/svg">
<mask id="path-1-inside-1_27_125" fill="white">
<path d="M12 42.0002C12 24.3271 26.3269 10.0002 44 10.0002C61.6731 10.0002 76 24.3271 76 42.0002V96.0002H12V42.0002Z"/>
</mask>
<path d="M11 42.0002C11 23.7748 25.7746 9.00024 44 9.00024C62.2254 9.00024 77 23.7748 77 42.0002H75C75 24.8794 61.1208 11.0002 44 11.0002C26.8792 11.0002 13 24.8794 13 42.0002H11ZM76 96.0002H12H76ZM11 96.0002V42.0002C11 23.7748 25.7746 9.00024 44 9.00024V11.0002C26.8792 11.0002 13 24.8794 13 42.0002V96.0002H11ZM44 9.00024C62.2254 9.00024 77 23.7748 77 42.0002V96.0002H75V42.0002C75 24.8794 61.1208 11.0002 44 11.0002V9.00024Z" fill="#264653" mask="url(#path-1-inside-1_27_125)"/>
<mask id="path-3-inside-2_27_125" fill="white">
<path d="M6 43C6 22.0132 23.0132 5 44 5C64.9868 5 82 22.0132 82 43V96H6V43Z"/>
</mask>
<path d="M5 43C5 21.4609 22.4609 4 44 4C65.5391 4 83 21.4609 83 43H81C81 22.5655 64.4345 6 44 6C23.5655 6 7 22.5655 7 43H5ZM82 96H6H82ZM5 96V43C5 21.4609 22.4609 4 44 4V6C23.5655 6 7 22.5655 7 43V96H5ZM44 4C65.5391 4 83 21.4609 83 43V96H81V43C81 22.5655 64.4345 6 44 6V4Z" fill="#264653" mask="url(#path-3-inside-2_27_125)"/>
<mask id="path-5-inside-3_27_125" fill="white">
<path d="M7 43C7 22.5655 23.5655 6 44 6C64.4345 6 81 22.5655 81 43V96H7V43Z"/>
</mask>
<path d="M2 43C2 20.3563 20.3563 2 43 2H45C67.6437 2 86 20.3563 86 43H76C76 24.7746 61.6731 10 44 10C26.3269 10 12 24.7746 12 43H2ZM81 96H7H81ZM2 96V43C2 20.3563 20.3563 2 43 2L44 10C26.3269 10 12 24.7746 12 43V96H2ZM45 2C67.6437 2 86 20.3563 86 43V96H76V43C76 24.7746 61.6731 10 44 10L45 2Z" fill="#2C9984" mask="url(#path-5-inside-3_27_125)"/>
<mask id="path-7-inside-4_27_125" fill="white">
<path d="M1 42C1 19.3563 19.3563 1 42 1H46C68.6437 1 87 19.3563 87 42V96H1V42Z"/>
</mask>
<path d="M-4 42C-4 16.5949 16.5949 -4 42 -4H46C71.4051 -4 92 16.5949 92 42H82C82 22.1177 65.8822 6 46 6H42C22.1177 6 6 22.1177 6 42H-4ZM87 96H1H87ZM-4 96V42C-4 16.5949 16.5949 -4 42 -4V6C22.1177 6 6 22.1177 6 42V96H-4ZM46 -4C71.4051 -4 92 16.5949 92 42V96H82V42C82 22.1177 65.8822 6 46 6V-4Z" fill="#FFF9E3" mask="url(#path-7-inside-4_27_125)"/>
<mask id="path-9-inside-5_27_125" fill="white">
<path d="M13 42.0002C13 24.8794 26.8792 11.0002 44 11.0002C61.1208 11.0002 75 24.8794 75 42.0002V96.0002H13V42.0002Z"/>
</mask>
<path d="M8 42.0002C8 22.118 24.1177 6.00024 44 6.00024C63.8823 6.00024 80 22.118 80 42.0002H70C70 27.6408 58.3594 16.0002 44 16.0002C29.6406 16.0002 18 27.6408 18 42.0002H8ZM75 96.0002H13H75ZM8 96.0002V42.0002C8 22.118 24.1177 6.00024 44 6.00024V16.0002C29.6406 16.0002 18 27.6408 18 42.0002V96.0002H8ZM44 6.00024C63.8823 6.00024 80 22.118 80 42.0002V96.0002H70V42.0002C70 27.6408 58.3594 16.0002 44 16.0002V6.00024Z" fill="#315260" mask="url(#path-9-inside-5_27_125)"/>
<path d="M1 95.5V96H1.5H18.06H18.56V95.5V42.58C18.56 37.1346 19.743 32.4886 22.0865 28.621C24.5631 24.6119 27.7395 21.5559 31.6166 19.4405C35.6247 17.3191 39.8636 16.26 44.34 16.26C48.8173 16.26 52.9949 17.3195 56.8806 19.4389L56.8806 19.439L56.8861 19.4419C60.882 21.5574 64.0547 24.6112 66.409 28.6135L66.4135 28.6211L66.4182 28.6284C68.8787 32.495 70.12 37.1381 70.12 42.58V95.5V96H70.62H87.18H87.68V95.5V42.4C87.68 34.1628 85.8018 26.9314 82.0292 20.7234C78.3811 14.523 73.2727 9.72002 66.7152 6.31871C60.2717 2.79425 52.8084 1.04 44.34 1.04C35.9893 1.04 28.5273 2.79518 21.9666 6.3178C15.4085 9.71902 10.2407 14.5215 6.47274 20.7203L6.47269 20.7203L6.46903 20.7265C2.81744 26.9342 1 34.1644 1 42.4V95.5Z" stroke="#264653"/>
</svg>
