<svg width="107" height="137" viewBox="0 0 107 137" fill="none" xmlns="http://www.w3.org/2000/svg">
<path d="M4.21818 84.4764L4.21735 84.4779C1.871 88.7795 0.70459 93.7005 0.70459 99.2273C0.70459 106.384 2.40868 112.762 5.82791 118.345C9.24672 123.928 14.1132 128.314 20.4104 131.506C26.7165 134.702 34.2123 136.29 42.8807 136.29C49.2073 136.29 55.6136 135.128 62.0974 132.809L62.1001 132.808C67.8873 130.7 72.798 127.633 76.8236 123.605L85.706 134.319L85.856 134.5H86.091H104.244H105.3L104.631 133.683L86.7204 111.809C86.8727 111.622 87.0269 111.432 87.183 111.239C89.7439 108.07 92.0256 103.711 94.0394 98.1839C96.0695 92.6121 97.0739 85.4532 97.0739 76.7273V76.2273H96.5739H82H81.5V76.7273C81.5 83.7048 80.3795 89.9683 78.1483 95.5253L78.1471 95.5284C77.6343 96.83 77.078 98.0874 76.4781 99.3005L48.8421 65.5493L58.0072 58.7205C58.0075 58.7202 58.0078 58.72 58.0081 58.7198C63.4138 54.7297 67.6965 50.4077 70.8447 45.7502C74.0183 41.0549 75.5966 35.5213 75.5966 29.1705C75.5966 24.2198 74.2924 19.6332 71.6871 15.4209C69.0796 11.1625 65.3673 7.75872 60.5671 5.20698C55.7499 2.60348 50.0187 1.3125 43.3921 1.3125C36.9341 1.3125 31.2692 2.58284 26.4126 5.14104C21.6026 7.65456 17.8468 11.1919 15.1561 15.7486L15.1554 15.7499C12.5048 20.2689 11.1875 25.515 11.1875 31.4716C11.1875 36.6603 12.3124 41.4893 14.5651 45.9512C16.8008 50.3797 19.806 54.864 23.5756 59.4046C24.4882 60.504 25.4262 61.6336 26.3893 62.7936C21.7735 66.0325 17.6357 69.2738 13.9768 72.5177C9.84824 76.1732 6.59277 80.159 4.21818 84.4764ZM31.9295 78.1509L36.3862 74.8302L67.0953 111.871C63.8931 114.84 60.398 117.184 56.6099 118.906C51.9846 120.966 47.239 121.994 42.3694 121.994C37.2415 121.994 32.7901 120.923 28.9988 118.798C25.1906 116.664 22.2523 113.868 20.1698 110.411C18.0856 106.951 17.0455 103.226 17.0455 99.2273C17.0455 98.4167 17.2848 97.2972 17.7997 95.847C18.3119 94.4045 19.0847 92.6677 20.1229 90.6336C22.161 86.6406 26.0765 82.477 31.9279 78.1521L31.9295 78.1509ZM47.1847 47.4339L38.9804 53.5318C38.1002 52.4569 37.229 51.3911 36.367 50.3344C33.784 47.0737 31.6499 43.9031 29.9618 40.8229C28.3328 37.731 27.5285 34.7008 27.5285 31.7273C27.5285 29.0906 28.2071 26.5313 29.5753 24.0433C30.9846 21.5153 32.9103 19.4443 35.3582 17.8262L35.3598 17.8251C37.8277 16.1798 40.6699 15.3523 43.9035 15.3523C48.5121 15.3523 52.1874 16.862 54.9793 19.8593L54.9818 19.8619C57.8606 22.9076 59.2557 26.0079 59.2557 29.1705C59.2557 33.5595 58.1494 37.0609 55.9804 39.7209L55.9775 39.7246C53.8016 42.4445 50.8828 45.01 47.209 47.417L47.1966 47.4251L47.1847 47.4339Z" stroke="#81C9C1"/>
</svg>
