<svg width="89" height="96" viewBox="0 0 89 96" fill="none" xmlns="http://www.w3.org/2000/svg">
<path d="M25.6191 89.8286L25.6248 89.8313C33.5023 93.5883 42.5179 95.46 52.66 95.46H76.24H76.74V94.96V80.74V80.24H76.24H52.3C46.478 80.24 41.1427 79.2901 36.2887 77.3969C31.5639 75.3877 27.6744 72.4977 24.6104 68.7276C21.659 64.9803 19.8517 60.457 19.2004 55.14H87.04H87.4411L87.5281 54.7485C87.7768 53.6294 87.8988 52.3386 87.9 50.8809C88.0199 49.4358 88.08 48.0488 88.08 46.72C88.08 38.1384 86.5085 30.3866 83.3554 23.4736C80.1964 16.4275 75.3931 10.8331 68.9522 6.70057C62.6116 2.55527 54.6502 0.5 45.1 0.5C36.2567 0.5 28.4812 2.62116 21.7916 6.87817C15.1127 11.1284 9.89341 16.957 6.13501 24.352C2.37449 31.6311 0.5 39.8709 0.5 49.06C0.5 58.3809 2.67996 66.5747 7.05518 73.6237L7.05509 73.6237L7.06061 73.6322C11.553 80.5529 17.7438 85.9515 25.6191 89.8286ZM69.6281 35.8294L69.6288 35.8336C70.0686 38.1422 70.3038 40.3441 70.3361 42.44H19.0011C19.2732 39.306 19.9691 36.169 21.0909 33.0282C22.2706 29.7249 23.9797 26.779 26.2184 24.1868L26.2185 24.1869L26.2255 24.1784C28.4623 21.4707 31.1076 19.3552 34.1636 17.8272L34.1636 17.8273L34.1702 17.8239C37.329 16.186 40.968 15.36 45.1 15.36C49.0111 15.36 52.3626 15.9528 55.1677 17.1215L55.1677 17.1216L55.1743 17.1242C58.117 18.3013 60.5129 19.8833 62.3759 21.8627L62.3863 21.8737L62.3973 21.8841C64.3923 23.7617 65.9754 25.9312 67.1486 28.395L67.1485 28.395L67.1528 28.4036C68.3316 30.7612 69.1565 33.2361 69.6281 35.8294Z" fill="#81C9C1" stroke="#264653"/>
<mask id="path-2-inside-1_27_136" fill="white">
<path fill-rule="evenodd" clip-rule="evenodd" d="M45.228 7.95996C26.4503 7.95996 11.228 23.1823 11.228 41.96V48.96H79.228V41.96C79.228 23.1823 64.0057 7.95996 45.228 7.95996ZM45.7208 15.96C32.1138 15.96 21.0831 26.9906 21.0831 40.5976V41.96H70.3585V40.5977C70.3585 26.9906 59.3278 15.96 45.7208 15.96Z"/>
</mask>
<path fill-rule="evenodd" clip-rule="evenodd" d="M45.228 7.95996C26.4503 7.95996 11.228 23.1823 11.228 41.96V48.96H79.228V41.96C79.228 23.1823 64.0057 7.95996 45.228 7.95996ZM45.7208 15.96C32.1138 15.96 21.0831 26.9906 21.0831 40.5976V41.96H70.3585V40.5977C70.3585 26.9906 59.3278 15.96 45.7208 15.96Z" fill="#FFF9E3"/>
<path d="M11.228 48.96H10.228V49.96H11.228V48.96ZM79.228 48.96V49.96H80.228V48.96H79.228ZM21.0831 41.96H20.0831V42.96H21.0831V41.96ZM70.3585 41.96V42.96H71.3585V41.96H70.3585ZM12.228 41.96C12.228 23.7346 27.0026 8.95996 45.228 8.95996V6.95996C25.8981 6.95996 10.228 22.63 10.228 41.96H12.228ZM12.228 48.96V41.96H10.228V48.96H12.228ZM79.228 47.96H11.228V49.96H79.228V47.96ZM78.228 41.96V48.96H80.228V41.96H78.228ZM45.228 8.95996C63.4534 8.95996 78.228 23.7346 78.228 41.96H80.228C80.228 22.63 64.558 6.95996 45.228 6.95996V8.95996ZM22.0831 40.5976C22.0831 27.5429 32.666 16.96 45.7208 16.96V14.96C31.5615 14.96 20.0831 26.4383 20.0831 40.5976H22.0831ZM22.0831 41.96V40.5976H20.0831V41.96H22.0831ZM70.3585 40.96H21.0831V42.96H70.3585V40.96ZM69.3585 40.5977V41.96H71.3585V40.5977H69.3585ZM45.7208 16.96C58.7755 16.96 69.3585 27.5429 69.3585 40.5977H71.3585C71.3585 26.4383 59.8801 14.96 45.7208 14.96V16.96Z" fill="#264653" mask="url(#path-2-inside-1_27_136)"/>
<path d="M21.228 40.46C21.228 26.929 32.1971 15.96 45.728 15.96C59.259 15.96 70.228 26.929 70.228 40.46V41.96H21.228V40.46Z" fill="#2C9984"/>
<path d="M28.7359 36.46C28.9999 28.131 35.8349 21.46 44.228 21.46H46.228C54.6211 21.46 61.4562 28.131 61.7201 36.46H28.7359Z" fill="#1D343D" stroke="#264653"/>
<path fill-rule="evenodd" clip-rule="evenodd" d="M18.228 47.96H12.228V52.96C12.228 72.2899 27.8981 87.96 47.228 87.96H76.228V80.96H48.228C31.6595 80.96 18.228 67.5285 18.228 50.96V47.96Z" fill="#FFF9E3"/>
<mask id="path-7-inside-2_27_136" fill="white">
<path d="M11.228 47.96H76.228V87.96H46.228C26.8981 87.96 11.228 72.2899 11.228 52.96V47.96Z"/>
</mask>
<path d="M11.228 47.96H76.228H11.228ZM76.228 88.96H46.228C26.3458 88.96 10.228 72.8422 10.228 52.96H12.228C12.228 71.7376 27.4503 86.96 46.228 86.96H76.228V88.96ZM46.228 88.96C26.3458 88.96 10.228 72.8422 10.228 52.96V47.96H12.228V52.96C12.228 71.7376 27.4503 86.96 46.228 86.96V88.96ZM76.228 47.96V87.96V47.96Z" fill="#264653" mask="url(#path-7-inside-2_27_136)"/>
<path d="M18.728 48.46C18.7963 51.053 18.6595 52.5808 19.228 54.96" stroke="#264653"/>
</svg>
