<svg width="98" height="99" viewBox="0 0 98 99" fill="none" xmlns="http://www.w3.org/2000/svg">
<rect x="19.0835" y="15.96" width="59" height="66" rx="29.5" fill="#FFF9E3"/>
<path d="M64.5835 48.96C64.5835 59.8395 57.5456 68.46 49.0835 68.46C40.6214 68.46 33.5835 59.8395 33.5835 48.96C33.5835 38.0806 40.6214 29.46 49.0835 29.46C57.5456 29.46 64.5835 38.0806 64.5835 48.96Z" fill="#2C9984" stroke="#264653"/>
<path d="M20.8826 91.2361L20.8881 91.2396C27.4606 95.4996 35.2383 97.62 44.2 97.62C50.3749 97.62 55.7872 96.5909 60.4242 94.5164C65.0339 92.4542 68.8696 89.8394 71.9204 86.6666C74.7452 83.7331 77.0399 80.6959 78.8 77.5541V94.96V95.46H79.3H96.04H96.54V94.96V48.52C96.54 39.5665 94.6037 31.4455 90.7227 24.1676C86.9602 16.8866 81.5563 11.1189 74.5183 6.87191C67.4663 2.61639 59.0331 0.5 49.24 0.5C39.0889 0.5 30.3569 2.67553 23.0654 7.04966C15.7868 11.2961 10.2015 17.124 6.318 24.5262C2.43607 31.8055 0.5 39.9872 0.5 49.06C0.5 58.0071 2.25359 66.1814 5.76843 73.5747C9.28559 80.9728 14.3243 86.8638 20.8826 91.2361ZM74.7128 66.1164L74.7107 66.1206C72.2299 71.2004 68.6914 75.2091 64.0921 78.1578C59.621 80.9814 54.4361 82.4 48.52 82.4C42.1191 82.4 36.699 80.9192 32.2348 77.9823C27.7536 75.0341 24.3342 71.0858 21.9726 66.1274C19.6067 61.0401 18.42 55.4136 18.42 49.24C18.42 42.8235 19.6078 37.1396 21.9703 32.1773C24.4526 27.0954 27.933 23.0869 32.4124 20.1393C36.9987 17.2001 42.4807 15.72 48.88 15.72C54.9146 15.72 60.1565 17.1978 64.6252 20.1377L64.6251 20.1378L64.633 20.1427C69.1102 22.9705 72.5277 26.8571 74.8886 31.815L74.8885 31.815L74.8928 31.8236C77.3738 36.7857 78.62 42.4076 78.62 48.7C78.62 55.1101 77.3148 60.9124 74.7128 66.1164Z" fill="#81C9C1" stroke="#264653"/>
</svg>
