<svg width="101" height="97" viewBox="0 0 101 97" fill="none" xmlns="http://www.w3.org/2000/svg">
<path d="M38.7824 92.4418L38.7907 92.4479L38.7993 92.4537C42.2425 94.7902 46.0604 95.96 50.24 95.96C54.5365 95.96 58.3583 94.7919 61.6878 92.4489L61.6878 92.449L61.6976 92.4418C65.0242 89.9776 67.537 86.5357 69.246 82.1412L69.2461 82.1413L69.2487 82.1341L99.1287 1.67407L99.3791 1H98.66H80.84H80.4888L80.3697 1.33032L53.5526 75.6623C53.0863 76.8258 52.5876 77.5696 52.0877 77.9696L52.066 77.9869L52.0464 78.0065C51.6814 78.3715 51.1608 78.58 50.42 78.58C49.8215 78.58 49.2701 78.3838 48.7524 77.9696C48.2525 77.5697 47.7539 76.8259 47.2876 75.6628L20.6507 1.33133L20.532 1H20.18H2H1.28095L1.53128 1.67407L31.4097 82.1298C31.41 82.1305 31.4102 82.1312 31.4105 82.1319C32.9991 86.5302 35.4531 89.9757 38.7824 92.4418Z" fill="#264653" stroke="#264653"/>
<path fill-rule="evenodd" clip-rule="evenodd" d="M47.6759 76.6193C48.6257 79.2699 52.3743 79.2699 53.3241 76.6193L80.4231 1H90C90 1 64.9237 78.1071 58.5 84C52.0763 89.8929 48.3345 89.4336 41.5 84C34.6655 78.5664 11 1 11 1H20.5769L47.6759 76.6193Z" fill="#FFF9E3"/>
<path d="M53.3241 76.6193L53.7948 76.788L53.3241 76.6193ZM47.6759 76.6193L47.2052 76.788L47.6759 76.6193ZM80.4231 1V0.5H80.0711L79.9524 0.831324L80.4231 1ZM90 1L90.4755 1.15463L90.6884 0.5H90V1ZM11 1V0.5H10.3247L10.5218 1.14591L11 1ZM20.5769 1L21.0476 0.831324L20.9289 0.5H20.5769V1ZM52.8534 76.4506C52.0619 78.6594 48.9381 78.6594 48.1466 76.4506L47.2052 76.788C48.3134 79.8803 52.6866 79.8803 53.7948 76.788L52.8534 76.4506ZM79.9524 0.831324L52.8534 76.4506L53.7948 76.788L80.8938 1.16868L79.9524 0.831324ZM80.4231 1.5H90V0.5H80.4231V1.5ZM90 1C89.5245 0.845365 89.5244 0.845647 89.5242 0.846222C89.524 0.846805 89.5238 0.847673 89.5234 0.848837C89.5226 0.851164 89.5215 0.85466 89.52 0.859314C89.5169 0.868623 89.5124 0.882567 89.5064 0.901075C89.4943 0.938092 89.4763 0.993366 89.4525 1.06633C89.4049 1.21227 89.3342 1.42897 89.2416 1.71192C89.0565 2.27781 88.7841 3.10867 88.4351 4.16829C87.737 6.28753 86.7327 9.32176 85.5073 12.9813C83.0566 20.3006 79.7223 30.1204 76.1875 40.1236C72.6522 50.128 68.9184 60.3107 65.6683 68.3579C64.0429 72.3823 62.5414 75.8656 61.2482 78.5229C60.6015 79.8519 60.0101 80.9676 59.4843 81.8383C58.9525 82.7189 58.5083 83.3139 58.162 83.6316L58.838 84.3684C59.2947 83.9495 59.7991 83.2515 60.3404 82.3552C60.8876 81.449 61.4937 80.3039 62.1474 78.9605C63.4552 76.2731 64.9666 72.7655 66.5955 68.7324C69.8539 60.6647 73.5935 50.4657 77.1303 40.4567C80.6676 30.4466 84.0038 20.6212 86.4556 13.2988C87.6815 9.63749 88.6864 6.60169 89.3849 4.48112C89.7341 3.42083 90.0067 2.58934 90.192 2.02286C90.2847 1.73962 90.3555 1.52263 90.4032 1.37641C90.4271 1.30331 90.4451 1.24789 90.4572 1.21074C90.4633 1.19217 90.4678 1.17816 90.4709 1.16878C90.4724 1.16409 90.4736 1.16057 90.4743 1.15821C90.4747 1.15702 90.475 1.15613 90.4752 1.15554C90.4754 1.15494 90.4755 1.15463 90 1ZM58.162 83.6316C54.9755 86.5548 52.5581 87.8005 50.1651 87.7476C47.7515 87.6941 45.2219 86.3203 41.8112 83.6086L41.1888 84.3914C44.6126 87.1133 47.3711 88.6859 50.143 88.7473C52.9355 88.8092 55.6008 87.3381 58.838 84.3684L58.162 83.6316ZM41.8112 83.6086C41.4526 83.3236 40.9963 82.7619 40.4536 81.9049C39.918 81.0591 39.3221 79.9646 38.6757 78.6526C37.3832 76.0293 35.9039 72.5679 34.316 68.555C31.141 60.531 27.5453 50.3354 24.1608 40.3026C20.7769 30.2712 17.6061 20.4089 15.2813 13.054C14.1189 9.37661 13.168 6.32636 12.5078 4.19556C12.1777 3.13017 11.9203 2.29465 11.7454 1.72555C11.6579 1.44101 11.5911 1.22306 11.5462 1.0763C11.5237 1.00291 11.5067 0.947324 11.4953 0.910099C11.4897 0.891486 11.4854 0.877465 11.4825 0.868107C11.4811 0.863427 11.48 0.859914 11.4793 0.857575C11.4789 0.856405 11.4787 0.855534 11.4785 0.854948C11.4783 0.854372 11.4782 0.85409 11 1C10.5218 1.14591 10.5219 1.14622 10.522 1.14683C10.5222 1.14742 10.5225 1.14832 10.5229 1.14951C10.5236 1.15189 10.5247 1.15544 10.5261 1.16016C10.529 1.16959 10.5333 1.18369 10.539 1.20238C10.5504 1.23976 10.5675 1.29551 10.59 1.36906C10.635 1.51615 10.702 1.73442 10.7895 2.01931C10.9646 2.5891 11.2223 3.42535 11.5526 4.49153C12.2133 6.62386 13.1647 9.67594 14.3278 13.3553C16.6538 20.7139 19.8266 30.5828 23.2133 40.6222C26.5995 50.6602 30.2017 60.875 33.3861 68.9229C34.978 72.946 36.4688 76.4359 37.7787 79.0945C38.4335 80.4235 39.0469 81.5526 39.6088 82.4399C40.1636 83.3162 40.6931 83.9972 41.1888 84.3914L41.8112 83.6086ZM11 1.5H20.5769V0.5H11V1.5ZM48.1466 76.4506L21.0476 0.831324L20.1062 1.16868L47.2052 76.788L48.1466 76.4506Z" fill="#264653"/>
</svg>
