<svg width="153" height="99" viewBox="0 0 153 99" fill="none" xmlns="http://www.w3.org/2000/svg">
<path d="M142.602 45V3.00003" stroke="#264653"/>
<mask id="path-2-inside-1_66_355" fill="white">
<path d="M8.10229 45H54.1023V68C54.1023 80.7026 43.8048 91 31.1023 91V91C18.3997 91 8.10229 80.7026 8.10229 68V45Z"/>
</mask>
<path d="M8.10229 45H54.1023H8.10229ZM55.1023 68C55.1023 81.2549 44.3571 92 31.1023 92C17.8475 92 7.10229 81.2549 7.10229 68H9.10229C9.10229 80.1503 18.952 90 31.1023 90C43.2526 90 53.1023 80.1503 53.1023 68H55.1023ZM31.1023 92C17.8475 92 7.10229 81.2549 7.10229 68V45H9.10229V68C9.10229 80.1503 18.952 90 31.1023 90V92ZM55.1023 45V68C55.1023 81.2549 44.3571 92 31.1023 92V90C43.2526 90 53.1023 80.1503 53.1023 68V45H55.1023Z" fill="#264653" mask="url(#path-2-inside-1_66_355)"/>
<mask id="path-4-inside-2_66_355" fill="white">
<path d="M97.1023 45H143.102V68C143.102 80.7026 132.805 91 120.102 91V91C107.4 91 97.1023 80.7026 97.1023 68V45Z"/>
</mask>
<path d="M97.1023 45H143.102H97.1023ZM144.102 68C144.102 81.2549 133.357 92 120.102 92C106.847 92 96.1023 81.2549 96.1023 68H98.1023C98.1023 80.1503 107.952 90 120.102 90C132.253 90 142.102 80.1503 142.102 68H144.102ZM120.102 92C106.847 92 96.1023 81.2549 96.1023 68V45H98.1023V68C98.1023 80.1503 107.952 90 120.102 90V92ZM144.102 45V68C144.102 81.2549 133.357 92 120.102 92V90C132.253 90 142.102 80.1503 142.102 68V45H144.102Z" fill="#264653" mask="url(#path-4-inside-2_66_355)"/>
<mask id="path-6-inside-3_66_355" fill="white">
<path d="M53.1023 30.5C53.1023 18.0736 63.1759 8.00003 75.6023 8.00003V8.00003C88.0287 8.00003 98.1023 18.0736 98.1023 30.5V54H53.1023V30.5Z"/>
</mask>
<path d="M52.1023 30.5C52.1023 17.5213 62.6236 7.00003 75.6023 7.00003C88.581 7.00003 99.1023 17.5213 99.1023 30.5H97.1023C97.1023 18.6259 87.4764 9.00003 75.6023 9.00003C63.7282 9.00003 54.1023 18.6259 54.1023 30.5H52.1023ZM98.1023 54H53.1023H98.1023ZM52.1023 54V30.5C52.1023 17.5213 62.6236 7.00003 75.6023 7.00003V9.00003C63.7282 9.00003 54.1023 18.6259 54.1023 30.5V54H52.1023ZM75.6023 7.00003C88.581 7.00003 99.1023 17.5213 99.1023 30.5V54H97.1023V30.5C97.1023 18.6259 87.4764 9.00003 75.6023 9.00003V7.00003Z" fill="#264653" mask="url(#path-6-inside-3_66_355)"/>
<path d="M8.60229 45V3.00003" stroke="#264653"/>
<path fill-rule="evenodd" clip-rule="evenodd" d="M97 48.0001H89V67.0001C89 84.1209 102.879 98.0001 120 98.0001C137.121 98.0001 151 84.1209 151 67.0001V48.0001H143V68.0001C143 80.7026 132.703 91.0001 120 91.0001C107.297 91.0001 97 80.7026 97 68.0001V48.0001Z" fill="#FFF9E3"/>
<path fill-rule="evenodd" clip-rule="evenodd" d="M62 48H1V67.5C1 84.3447 14.6553 98 31.5 98C48.3447 98 62 84.3447 62 67.5V48ZM54 48.0001H8V68.0001C8 80.7026 18.2975 91.0001 31 91.0001C43.7025 91.0001 54 80.7026 54 68.0001V48.0001Z" fill="#FFF9E3"/>
<path fill-rule="evenodd" clip-rule="evenodd" d="M75.5 9C63.6259 9 54 18.6259 54 30.5V54H62V29.5C62 22.0442 68.0442 16 75.5 16C82.9558 16 89 22.0442 89 29.5V54H97V30.5C97 18.6259 87.3741 9 75.5 9Z" fill="#FFF9E3"/>
<rect x="1" y="3" width="7" height="45" fill="#FFF9E3"/>
<rect x="143" y="3" width="8" height="45" fill="#FFF9E3"/>
<path fill-rule="evenodd" clip-rule="evenodd" d="M106 45H98.1021V68C98.1021 80.1503 107.952 90 120.102 90C132.252 90 142.102 80.1503 142.102 68V45H134V69C134 76.732 127.732 83 120 83C112.268 83 106 76.732 106 69V45Z" fill="#2C9984"/>
<path fill-rule="evenodd" clip-rule="evenodd" d="M53.1021 44.9999H9.10205V67.9999C9.10205 80.1502 18.9518 89.9999 31.1021 89.9999C43.2523 89.9999 53.1021 80.1502 53.1021 67.9999V44.9999ZM46 45H18V69C18 76.732 24.268 83 32 83C39.732 83 46 76.732 46 69V45Z" fill="#2C9984"/>
<path fill-rule="evenodd" clip-rule="evenodd" d="M74 1C58.536 1 46 13.536 46 29V50H53V30.5C53 18.0736 63.0736 8 75.5 8C87.9264 8 98 18.0736 98 30.5V50H106V29C106 13.536 93.464 1 78 1H74Z" fill="#2C9984"/>
<rect x="134" y="3" width="8" height="45" fill="#2C9984"/>
<rect x="9" y="3" width="9" height="45" fill="#2C9984"/>
<path d="M15.8964 94.3673L15.9034 94.3708L15.9105 94.374C20.6635 96.5677 25.9562 97.66 31.78 97.66C37.367 97.66 42.481 96.5665 47.1141 94.3719L47.119 94.3695C51.8906 92.0449 55.6823 88.4955 58.4897 83.7357C61.4286 78.8366 62.88 72.6209 62.88 65.12V29.84C62.88 26.5405 63.4688 23.8744 64.6121 21.8118C65.8867 19.7293 67.4947 18.2445 69.4329 17.3324L69.433 17.3326L69.4436 17.3273C71.5346 16.2817 73.7381 15.76 76.06 15.76C78.3818 15.76 80.521 16.2816 82.4861 17.3219L82.4965 17.3274L82.5071 17.3324C84.4481 18.2458 86.0579 19.7336 87.3334 21.8208C88.5921 23.8805 89.24 26.5427 89.24 29.84V65.12C89.24 72.6185 90.6305 78.8318 93.4465 83.7293L93.4503 83.7357L93.4542 83.7421C96.381 88.4982 100.231 92.0456 105.001 94.3695L105.001 94.3696L105.01 94.374C109.761 96.5665 114.933 97.66 120.52 97.66C126.225 97.66 131.4 96.5672 136.034 94.3719L136.039 94.3695C140.811 92.0446 144.603 88.4947 147.411 83.734L147.413 83.7293C150.23 78.8318 151.62 72.6185 151.62 65.12V3.20003V2.70003H151.12H134.38H133.88V3.20003V68C133.88 71.1697 133.235 73.8372 131.97 76.0244C130.693 78.1134 129.074 79.7293 127.116 80.8834C125.157 81.9183 122.962 82.44 120.52 82.44C118.078 82.44 115.818 81.9182 113.733 80.8777C111.657 79.722 109.984 78.107 108.71 76.0244C107.445 73.8372 106.8 71.1697 106.8 68V32.36C106.8 25.2222 105.47 19.3091 102.774 14.6515C100.088 9.89109 96.4168 6.3394 91.7636 4.01282C87.1256 1.69384 81.8875 0.540039 76.06 0.540039C70.2325 0.540039 64.9944 1.69384 60.3564 4.01282C55.7031 6.33948 52.0319 9.89135 49.3458 14.652C46.6501 19.3096 45.32 25.2225 45.32 32.36V68C45.32 71.1647 44.6174 73.8278 43.2372 76.013L43.2334 76.0193C41.9592 78.1044 40.2848 79.7211 38.2066 80.8777C36.1185 81.92 33.9183 82.44 31.6 82.44C29.2781 82.44 27.0746 81.9183 24.9836 80.8728C22.919 79.8405 21.2484 78.2329 19.9727 76.0295C18.7059 73.8413 18.06 71.1721 18.06 68V3.20003V2.70003H17.56H1H0.5V3.20003V65.12C0.5 72.6185 1.89047 78.8318 4.70652 83.7293L4.70932 83.734C7.51491 88.4913 11.2444 92.0413 15.8964 94.3673Z" stroke="#264653"/>
</svg>
